<svg 
 xmlns="http://www.w3.org/2000/svg"
 xmlns:xlink="http://www.w3.org/1999/xlink"
 width="33.5px" height="35.5px">
<path fill-rule="evenodd"  stroke="rgb(210, 198, 162)" stroke-width="1px" stroke-linecap="butt" stroke-linejoin="miter" fill="none"
 d="M26.699,27.813 C20.053,34.459 9.354,35.612 4.500,30.500 C4.122,30.102 9.664,30.554 13.500,26.500 C17.336,22.446 18.580,13.980 21.500,11.500 C24.420,9.020 27.964,5.686 28.500,6.500 C32.375,12.389 33.346,21.166 26.699,27.813 ZM20.500,8.500 C16.664,12.554 14.420,22.020 11.500,24.500 C8.580,26.980 3.828,29.062 3.292,28.248 C-0.583,22.359 -0.346,13.834 6.301,7.187 C12.947,0.541 22.507,-0.934 27.361,4.178 C27.740,4.577 24.336,4.446 20.500,8.500 Z"/>
</svg>