<svg 
 xmlns="http://www.w3.org/2000/svg"
 xmlns:xlink="http://www.w3.org/1999/xlink"
 width="60px" height="40px">
<path fill-rule="evenodd"  fill="rgb(247, 247, 247)"
 d="M59.982,1.163 C59.986,1.139 59.993,1.115 59.995,1.091 C60.002,1.017 59.994,0.942 59.985,0.867 C59.983,0.848 59.986,0.830 59.983,0.811 C59.965,0.712 59.932,0.615 59.883,0.522 C59.875,0.506 59.864,0.491 59.855,0.475 C59.853,0.473 59.853,0.470 59.852,0.467 C59.851,0.465 59.848,0.464 59.847,0.461 C59.840,0.450 59.834,0.438 59.827,0.428 C59.765,0.337 59.690,0.262 59.606,0.198 C59.587,0.184 59.565,0.176 59.545,0.163 C59.471,0.114 59.393,0.074 59.309,0.047 C59.272,0.035 59.235,0.029 59.197,0.022 C59.124,0.007 59.051,0.000 58.976,0.002 C58.936,0.003 58.898,0.005 58.858,0.011 C58.832,0.015 58.807,0.011 58.781,0.017 L0.782,12.016 C0.369,12.102 0.053,12.437 -0.006,12.855 C-0.065,13.273 0.144,13.683 0.517,13.880 L17.135,22.655 L20.050,38.846 C20.048,38.858 20.051,38.871 20.050,38.883 C20.040,38.963 20.039,39.041 20.049,39.120 C20.054,39.160 20.059,39.198 20.069,39.237 C20.092,39.332 20.129,39.421 20.179,39.505 C20.189,39.521 20.189,39.540 20.200,39.556 C20.203,39.561 20.208,39.565 20.212,39.569 C20.225,39.588 20.243,39.603 20.258,39.622 C20.305,39.680 20.354,39.733 20.410,39.778 C20.419,39.785 20.425,39.796 20.435,39.803 C20.450,39.814 20.467,39.817 20.482,39.827 C20.543,39.867 20.606,39.900 20.673,39.926 C20.700,39.936 20.725,39.948 20.753,39.956 C20.842,39.982 20.935,40.000 21.029,40.000 C21.030,40.000 21.031,40.000 21.032,40.000 L21.032,40.000 L21.032,40.000 C21.036,40.000 21.040,39.998 21.044,39.998 C21.061,39.999 21.078,40.000 21.095,40.000 C21.372,40.000 21.622,39.876 21.807,39.685 L32.877,32.297 L44.467,39.839 C44.631,39.945 44.821,40.000 45.012,40.000 C45.117,40.000 45.224,39.983 45.327,39.949 C45.614,39.853 45.844,39.631 45.949,39.345 L59.934,1.348 C59.947,1.313 59.958,1.278 59.967,1.242 C59.971,1.227 59.972,1.212 59.975,1.198 C59.978,1.187 59.980,1.175 59.982,1.163 ZM48.409,7.548 L24.436,25.193 C24.397,25.222 24.366,25.258 24.332,25.292 C24.319,25.304 24.306,25.314 24.295,25.327 C24.274,25.350 24.255,25.373 24.236,25.398 C24.218,25.422 24.204,25.447 24.188,25.472 C24.151,25.532 24.120,25.594 24.096,25.660 C24.091,25.673 24.083,25.683 24.079,25.696 C24.078,25.700 24.074,25.702 24.073,25.706 L21.325,34.645 L19.148,22.551 L48.409,7.548 ZM22.874,36.569 L25.598,27.563 L29.838,30.323 L31.051,31.112 L26.931,33.861 L22.874,36.569 ZM51.986,3.466 L18.041,20.871 L3.912,13.411 L51.986,3.466 ZM44.507,37.479 L29.115,27.465 L26.784,25.948 L56.913,3.771 L44.507,37.479 Z"/>
</svg>