<svg 
 xmlns="http://www.w3.org/2000/svg"
 xmlns:xlink="http://www.w3.org/1999/xlink"
 width="34px" height="33px">
<path fill-rule="evenodd"  fill="rgb(210, 198, 162)"
 d="M32.835,0.162 C32.616,-0.053 32.263,-0.053 32.044,0.162 L29.970,2.201 L16.948,2.201 L0.577,18.433 C0.204,18.799 -0.001,19.287 -0.001,19.805 C-0.001,20.323 0.204,20.811 0.577,21.177 L12.024,32.434 C12.408,32.812 12.912,33.001 13.417,33.001 C13.924,33.001 14.432,32.810 14.820,32.428 L30.761,16.329 L30.761,2.979 L32.835,0.940 C33.053,0.725 33.053,0.378 32.835,0.162 ZM29.643,15.882 L14.024,31.656 C13.691,31.984 13.148,31.984 12.815,31.656 L1.368,20.400 C1.034,20.072 1.034,19.538 1.369,19.209 L17.414,3.301 L28.852,3.301 L26.149,5.960 C25.706,5.671 25.178,5.501 24.609,5.501 C23.067,5.501 21.812,6.735 21.812,8.251 C21.812,9.768 23.067,11.002 24.609,11.002 C26.151,11.002 27.405,9.768 27.405,8.251 C27.405,7.692 27.233,7.172 26.940,6.737 L29.643,4.079 L29.643,15.882 ZM26.287,8.251 C26.287,9.161 25.534,9.901 24.609,9.901 C23.684,9.901 22.931,9.161 22.931,8.251 C22.931,7.342 23.684,6.601 24.609,6.601 C24.867,6.601 25.109,6.664 25.328,6.767 L24.213,7.863 C23.995,8.078 23.995,8.425 24.213,8.640 C24.323,8.748 24.466,8.801 24.609,8.801 C24.752,8.801 24.895,8.748 25.004,8.640 L26.118,7.545 C26.224,7.760 26.287,7.997 26.287,8.251 Z"/>
</svg>