<svg 
 xmlns="http://www.w3.org/2000/svg"
 xmlns:xlink="http://www.w3.org/1999/xlink"
 width="1001px" height="267px">
<path fill-rule="evenodd"  fill="rgb(255, 255, 255)"
 d="M1000.896,261.952 L933.358,261.952 L855.399,159.054 L835.331,182.948 L835.331,261.952 L780.528,261.952 L780.528,4.899 L835.331,4.899 L835.331,119.744 L926.411,4.899 L993.949,4.899 L891.677,125.525 L1000.896,261.952 ZM647.729,218.018 C676.288,218.018 699.444,201.832 710.250,180.635 L757.333,203.373 C738.809,235.360 706.390,266.577 647.729,266.577 C572.472,266.577 512.652,212.622 512.652,133.618 C512.652,54.614 572.472,0.659 647.729,0.659 C706.390,0.659 739.195,31.490 757.333,63.477 L710.250,86.601 C699.444,65.790 676.288,49.218 647.729,49.218 C602.960,49.218 568.998,85.059 568.998,133.618 C568.998,182.177 602.960,218.018 647.729,218.018 ZM361.321,266.577 C283.749,266.577 227.017,211.081 227.017,133.618 C227.017,56.155 283.749,0.659 361.321,0.659 C439.280,0.659 496.012,56.155 496.012,133.618 C496.012,211.081 439.280,266.577 361.321,266.577 ZM146.323,261.952 L95.766,169.844 L55.629,169.844 L55.629,261.952 L0.826,261.952 L0.826,4.899 L121.237,4.899 C174.882,4.899 207.686,39.969 207.686,87.757 C207.686,133.233 179.127,157.512 151.340,164.064 L209.230,261.952 L146.323,261.952 ZM151.726,87.372 C151.726,65.790 135.131,51.916 113.133,51.916 L55.629,51.916 L55.629,122.827 L113.133,122.827 C135.131,122.827 151.726,108.953 151.726,87.372 Z"/>
</svg>