<svg 
 xmlns="http://www.w3.org/2000/svg"
 xmlns:xlink="http://www.w3.org/1999/xlink"
 width="38px" height="38px">
<path fill-rule="evenodd"  fill="rgb(255, 255, 255)"
 d="M38.000,19.000 C38.000,8.524 29.476,-0.000 19.000,-0.000 C8.524,-0.000 -0.000,8.524 -0.000,19.000 C-0.000,24.534 2.379,29.521 6.167,32.996 L6.149,33.012 L6.765,33.532 C6.805,33.566 6.849,33.593 6.889,33.627 C7.217,33.898 7.556,34.156 7.901,34.405 C8.013,34.486 8.125,34.567 8.239,34.646 C8.608,34.900 8.987,35.141 9.374,35.370 C9.458,35.419 9.543,35.468 9.628,35.516 C10.051,35.757 10.484,35.985 10.927,36.193 C10.959,36.208 10.992,36.222 11.025,36.237 C12.468,36.908 14.009,37.401 15.620,37.692 C15.662,37.699 15.704,37.707 15.747,37.715 C16.247,37.801 16.753,37.870 17.265,37.916 C17.327,37.922 17.389,37.925 17.452,37.931 C17.962,37.973 18.478,38.000 19.000,38.000 C19.518,38.000 20.028,37.973 20.535,37.932 C20.599,37.927 20.664,37.923 20.728,37.918 C21.236,37.871 21.737,37.804 22.233,37.719 C22.276,37.712 22.319,37.704 22.362,37.696 C23.949,37.411 25.468,36.930 26.892,36.276 C26.945,36.252 26.998,36.229 27.050,36.204 C27.477,36.004 27.893,35.788 28.302,35.558 C28.403,35.500 28.504,35.442 28.605,35.383 C28.977,35.164 29.342,34.935 29.697,34.692 C29.825,34.605 29.950,34.513 30.077,34.422 C30.380,34.203 30.678,33.978 30.967,33.743 C31.032,33.691 31.101,33.646 31.163,33.593 L31.796,33.065 L31.777,33.049 C35.598,29.572 38.000,24.562 38.000,19.000 ZM1.382,19.000 C1.382,9.285 9.285,1.382 19.000,1.382 C28.715,1.382 36.618,9.285 36.618,19.000 C36.618,24.235 34.321,28.942 30.684,32.171 C30.481,32.031 30.276,31.905 30.067,31.800 L24.217,28.875 C23.692,28.613 23.366,28.085 23.366,27.498 L23.366,25.455 C23.501,25.288 23.644,25.099 23.792,24.891 C24.549,23.821 25.157,22.631 25.600,21.351 C26.475,20.935 27.040,20.063 27.040,19.079 L27.040,16.630 C27.040,16.030 26.820,15.449 26.427,14.993 L26.427,11.768 C26.463,11.410 26.590,9.386 25.126,7.717 C23.853,6.263 21.792,5.527 19.000,5.527 C16.208,5.527 14.147,6.263 12.874,7.716 C11.410,9.385 11.537,11.409 11.573,11.768 L11.573,14.992 C11.180,15.449 10.960,16.030 10.960,16.629 L10.960,19.078 C10.960,19.839 11.301,20.548 11.886,21.027 C12.445,23.219 13.597,24.879 14.023,25.441 L14.023,27.441 C14.023,28.005 13.715,28.523 13.220,28.794 L7.757,31.774 C7.583,31.868 7.410,31.979 7.237,32.102 C3.645,28.874 1.382,24.197 1.382,19.000 ZM29.335,33.255 C29.093,33.430 28.847,33.600 28.598,33.763 C28.483,33.837 28.369,33.912 28.253,33.984 C27.927,34.186 27.595,34.378 27.256,34.558 C27.182,34.597 27.106,34.635 27.031,34.673 C26.253,35.072 25.448,35.415 24.621,35.693 C24.592,35.703 24.563,35.713 24.534,35.723 C24.100,35.866 23.662,35.994 23.218,36.104 C23.217,36.104 23.215,36.105 23.214,36.105 C22.766,36.215 22.313,36.307 21.857,36.383 C21.845,36.385 21.832,36.387 21.820,36.389 C21.391,36.459 20.958,36.510 20.524,36.548 C20.447,36.555 20.371,36.559 20.293,36.565 C19.864,36.597 19.433,36.618 19.000,36.618 C18.562,36.618 18.125,36.597 17.691,36.564 C17.615,36.559 17.540,36.554 17.466,36.547 C17.027,36.508 16.591,36.457 16.160,36.386 C16.140,36.383 16.121,36.379 16.102,36.376 C15.188,36.223 14.289,35.998 13.414,35.705 C13.387,35.696 13.359,35.686 13.332,35.677 C12.898,35.529 12.468,35.366 12.046,35.185 C12.043,35.183 12.040,35.182 12.037,35.180 C11.638,35.008 11.246,34.818 10.859,34.617 C10.809,34.590 10.757,34.566 10.708,34.539 C10.355,34.350 10.009,34.146 9.669,33.933 C9.568,33.870 9.468,33.805 9.368,33.741 C9.054,33.535 8.745,33.322 8.444,33.096 C8.413,33.072 8.383,33.048 8.352,33.024 C8.374,33.012 8.396,32.999 8.418,32.987 L13.881,30.007 C14.821,29.494 15.405,28.511 15.405,27.441 L15.404,24.952 L15.245,24.760 C15.230,24.743 13.736,22.926 13.171,20.465 L13.109,20.192 L12.873,20.039 C12.541,19.824 12.342,19.465 12.342,19.077 L12.342,16.628 C12.342,16.307 12.478,16.008 12.727,15.783 L12.955,15.577 L12.955,11.729 L12.948,11.638 C12.946,11.622 12.742,9.960 13.913,8.626 C14.912,7.487 16.624,6.909 19.000,6.909 C21.367,6.909 23.074,7.483 24.075,8.613 C25.244,9.933 25.053,11.626 25.052,11.640 L25.045,15.579 L25.273,15.784 C25.521,16.008 25.658,16.308 25.658,16.630 L25.658,19.079 C25.658,19.571 25.323,20.018 24.842,20.167 L24.499,20.273 L24.388,20.615 C23.981,21.881 23.400,23.051 22.664,24.091 C22.483,24.347 22.307,24.574 22.155,24.747 L21.984,24.943 L21.984,27.498 C21.984,28.612 22.603,29.614 23.599,30.111 L29.449,33.036 C29.487,33.054 29.523,33.074 29.560,33.093 C29.486,33.149 29.410,33.201 29.335,33.255 Z"/>
</svg>