<svg 
 xmlns="http://www.w3.org/2000/svg"
 xmlns:xlink="http://www.w3.org/1999/xlink"
 width="60px" height="60px">
<path fill-rule="evenodd"  fill="#525252"
 d="M0.000,60.000 L0.000,0.000 L60.000,0.000 L60.000,60.000 L0.000,60.000 ZM58.000,2.000 L2.000,2.000 L2.000,58.000 L58.000,58.000 L58.000,2.000 ZM17.625,30.219 L26.884,37.626 L42.253,20.336 C42.620,19.923 43.251,19.885 43.665,20.253 C44.078,20.619 44.115,21.252 43.748,21.664 L27.748,39.664 C27.551,39.886 27.276,40.000 27.000,40.000 C26.780,40.000 26.559,39.928 26.375,39.781 L16.376,31.781 C15.945,31.436 15.875,30.807 16.220,30.375 C16.564,29.946 17.195,29.874 17.625,30.219 Z"/>
</svg>