<svg 
 xmlns="http://www.w3.org/2000/svg"
 xmlns:xlink="http://www.w3.org/1999/xlink"
 width="56px" height="56px">
<path fill-rule="evenodd"  fill="rgb(210, 198, 162)"
 d="M28.000,56.000 C12.561,56.000 -0.000,43.439 -0.000,28.000 C-0.000,12.561 12.561,-0.000 28.000,-0.000 C43.439,-0.000 56.000,12.561 56.000,28.000 C56.000,43.439 43.439,56.000 28.000,56.000 ZM28.000,2.000 C13.663,2.000 2.000,13.664 2.000,28.000 C2.000,42.336 13.663,54.000 28.000,54.000 C42.337,54.000 54.000,42.336 54.000,28.000 C54.000,13.664 42.337,2.000 28.000,2.000 ZM45.000,33.000 L11.000,33.000 C10.447,33.000 10.000,32.552 10.000,32.000 C10.000,31.448 10.447,31.000 11.000,31.000 L45.000,31.000 C45.553,31.000 46.000,31.448 46.000,32.000 C46.000,32.552 45.553,33.000 45.000,33.000 ZM45.000,25.000 L11.000,25.000 C10.447,25.000 10.000,24.552 10.000,24.000 C10.000,23.448 10.447,23.000 11.000,23.000 L45.000,23.000 C45.553,23.000 46.000,23.448 46.000,24.000 C46.000,24.552 45.553,25.000 45.000,25.000 ZM41.000,17.000 L15.000,17.000 C14.447,17.000 14.000,16.552 14.000,16.000 C14.000,15.448 14.447,15.000 15.000,15.000 L41.000,15.000 C41.553,15.000 42.000,15.448 42.000,16.000 C42.000,16.552 41.553,17.000 41.000,17.000 ZM15.000,39.000 L41.000,39.000 C41.553,39.000 42.000,39.448 42.000,40.000 C42.000,40.552 41.553,41.000 41.000,41.000 L15.000,41.000 C14.447,41.000 14.000,40.552 14.000,40.000 C14.000,39.448 14.447,39.000 15.000,39.000 Z"/>
</svg>