<svg 
 xmlns="http://www.w3.org/2000/svg"
 xmlns:xlink="http://www.w3.org/1999/xlink"
 width="27px" height="27px">
<path fill-rule="evenodd"  fill="rgb(255, 255, 255)"
 d="M26.996,24.861 L19.027,16.892 C20.350,15.127 21.144,12.943 21.144,10.573 C21.144,4.744 16.402,0.003 10.573,0.003 C4.744,0.003 0.003,4.744 0.003,10.573 C0.003,16.402 4.744,21.144 10.573,21.144 C12.943,21.144 15.126,20.350 16.892,19.027 L24.861,26.996 L26.996,24.861 ZM1.009,10.573 C1.009,5.300 5.299,1.009 10.573,1.009 C15.847,1.009 20.137,5.300 20.137,10.573 C20.137,15.847 15.847,20.137 10.573,20.137 C5.299,20.137 1.009,15.847 1.009,10.573 ZM17.906,18.170 C17.995,18.084 18.083,17.996 18.170,17.906 C18.243,17.830 18.323,17.760 18.394,17.682 L25.573,24.861 L24.860,25.573 L17.682,18.394 C17.760,18.323 17.830,18.243 17.906,18.170 Z"/>
</svg>