<svg 
 xmlns="http://www.w3.org/2000/svg"
 xmlns:xlink="http://www.w3.org/1999/xlink"
 width="45px" height="38px">
<path fill-rule="evenodd"  fill="rgb(255, 255, 255)"
 d="M8.760,6.080 L8.135,2.280 L5.893,2.280 C5.558,0.973 4.394,-0.000 3.000,-0.000 C1.345,-0.000 0.000,1.363 0.000,3.040 C0.000,4.717 1.345,6.080 3.000,6.080 C4.394,6.080 5.558,5.107 5.894,3.800 L6.864,3.800 L7.239,6.080 L7.211,6.080 L11.089,25.852 C9.240,25.995 7.700,27.438 7.519,29.252 C7.412,30.320 7.759,31.390 8.470,32.184 C9.181,32.982 10.196,33.440 11.250,33.440 L12.750,33.440 C12.750,35.955 14.768,38.000 17.250,38.000 C19.732,38.000 21.750,35.955 21.750,33.440 L30.000,33.440 C30.000,35.955 32.018,38.000 34.500,38.000 C36.982,38.000 39.000,35.955 39.000,33.440 L42.000,33.440 C42.415,33.440 42.750,33.100 42.750,32.680 C42.750,32.260 42.415,31.920 42.000,31.920 L38.737,31.920 C38.118,30.151 36.455,28.880 34.500,28.880 C32.545,28.880 30.882,30.151 30.262,31.920 L21.487,31.920 C20.868,30.151 19.205,28.880 17.250,28.880 C15.295,28.880 13.632,30.151 13.012,31.920 L11.250,31.920 C10.619,31.920 10.011,31.645 9.582,31.165 C9.149,30.680 8.946,30.055 9.011,29.405 C9.125,28.258 10.171,27.361 11.391,27.361 L11.984,27.361 C11.995,27.361 12.003,27.361 12.014,27.361 L41.259,27.361 C43.322,27.360 45.000,25.660 45.000,23.570 L45.000,6.080 L8.760,6.080 ZM3.000,4.560 C2.173,4.560 1.500,3.878 1.500,3.040 C1.500,2.202 2.173,1.520 3.000,1.520 C3.827,1.520 4.500,2.202 4.500,3.040 C4.500,3.878 3.827,4.560 3.000,4.560 ZM34.500,30.400 C36.154,30.400 37.500,31.763 37.500,33.440 C37.500,35.117 36.154,36.480 34.500,36.480 C32.846,36.480 31.500,35.117 31.500,33.440 C31.500,31.763 32.846,30.400 34.500,30.400 ZM17.250,30.400 C18.904,30.400 20.250,31.763 20.250,33.440 C20.250,35.117 18.904,36.480 17.250,36.480 C15.596,36.480 14.250,35.117 14.250,33.440 C14.250,31.763 15.596,30.400 17.250,30.400 ZM43.500,23.570 C43.500,24.822 42.495,25.840 41.260,25.840 L12.616,25.840 L9.038,7.600 L43.500,7.600 L43.500,23.570 Z"/>
</svg>