<svg 
 xmlns="http://www.w3.org/2000/svg"
 xmlns:xlink="http://www.w3.org/1999/xlink"
 width="34px" height="34px">
<path fill-rule="evenodd"  fill="rgb(210, 198, 162)"
 d="M26.637,3.006 L26.665,2.988 L25.915,2.526 C25.871,2.498 25.825,2.476 25.780,2.449 C25.535,2.300 25.285,2.158 25.031,2.021 C24.902,1.952 24.772,1.887 24.641,1.821 C24.451,1.724 24.257,1.632 24.062,1.542 C23.947,1.490 23.833,1.436 23.717,1.386 C23.414,1.255 23.108,1.132 22.796,1.019 C22.732,0.996 22.667,0.976 22.602,0.953 C22.329,0.858 22.054,0.770 21.775,0.688 C21.686,0.662 21.597,0.636 21.508,0.612 C21.200,0.527 20.888,0.449 20.573,0.382 C20.543,0.376 20.514,0.368 20.484,0.362 C20.135,0.288 19.783,0.228 19.427,0.177 C19.349,0.166 19.269,0.158 19.191,0.147 C18.913,0.112 18.633,0.082 18.351,0.060 C18.256,0.053 18.161,0.044 18.066,0.039 C17.713,0.015 17.358,0.000 17.000,0.000 C16.613,0.000 16.230,0.018 15.850,0.043 C15.750,0.050 15.651,0.057 15.551,0.066 C15.193,0.096 14.838,0.134 14.487,0.187 C14.452,0.192 14.417,0.197 14.381,0.202 C14.028,0.257 13.679,0.326 13.333,0.402 C13.219,0.427 13.105,0.454 12.991,0.482 C12.672,0.559 12.357,0.643 12.046,0.738 C11.948,0.768 11.850,0.801 11.753,0.832 C11.474,0.923 11.198,1.021 10.926,1.126 C10.801,1.174 10.677,1.222 10.553,1.273 C10.240,1.402 9.931,1.537 9.628,1.684 C9.528,1.732 9.430,1.786 9.331,1.836 C9.094,1.956 8.860,2.081 8.630,2.212 C8.515,2.277 8.401,2.342 8.287,2.410 C7.999,2.583 7.716,2.763 7.440,2.952 C7.402,2.978 7.362,2.999 7.324,3.026 L7.015,3.240 L7.018,3.253 C2.769,6.345 0.000,11.354 0.000,17.000 C0.000,26.374 7.626,34.000 17.000,34.000 C26.374,34.000 34.000,26.374 34.000,17.000 C34.000,11.202 31.081,6.076 26.637,3.006 ZM8.550,3.580 C8.733,3.465 8.919,3.353 9.106,3.245 C9.209,3.185 9.312,3.123 9.417,3.066 C9.680,2.922 9.947,2.787 10.217,2.659 C10.334,2.604 10.452,2.552 10.570,2.500 C10.768,2.412 10.967,2.328 11.167,2.249 C11.278,2.204 11.388,2.158 11.500,2.117 C11.787,2.011 12.077,1.913 12.369,1.824 C12.476,1.791 12.586,1.762 12.694,1.732 C12.921,1.668 13.149,1.608 13.380,1.554 C13.483,1.530 13.586,1.504 13.690,1.482 C14.007,1.415 14.326,1.356 14.647,1.308 C14.720,1.297 14.795,1.290 14.868,1.280 C15.138,1.243 15.411,1.214 15.685,1.191 C15.780,1.183 15.876,1.175 15.971,1.169 C16.313,1.149 16.655,1.133 17.000,1.133 C17.300,1.133 17.599,1.144 17.897,1.161 C17.983,1.165 18.067,1.174 18.152,1.180 C18.367,1.196 18.582,1.214 18.795,1.238 C18.890,1.249 18.984,1.262 19.078,1.274 C19.285,1.302 19.490,1.332 19.696,1.368 C19.787,1.384 19.878,1.400 19.968,1.417 C20.182,1.457 20.394,1.503 20.606,1.553 C20.684,1.571 20.763,1.588 20.840,1.607 C21.101,1.672 21.360,1.744 21.617,1.822 C21.643,1.830 21.669,1.836 21.695,1.844 C21.970,1.929 22.241,2.023 22.510,2.122 C22.617,2.162 22.723,2.206 22.829,2.249 C22.986,2.310 23.141,2.373 23.296,2.440 C23.429,2.498 23.562,2.558 23.694,2.620 C23.813,2.676 23.931,2.733 24.049,2.791 C24.135,2.833 24.221,2.878 24.307,2.923 C22.141,3.791 20.796,4.855 19.290,6.814 C19.076,7.091 18.968,7.430 18.978,7.769 C18.848,7.456 18.657,7.218 18.404,7.052 C17.879,6.707 17.192,6.731 16.305,7.127 L16.144,7.145 C15.007,7.272 14.381,7.342 14.324,8.579 C14.295,9.204 14.631,9.822 15.179,10.152 C15.318,10.235 15.463,10.296 15.612,10.333 C15.628,10.386 15.652,10.441 15.689,10.497 L15.918,10.813 L16.282,10.752 C16.594,10.699 16.855,10.688 17.033,10.693 C17.006,10.945 17.050,11.202 17.164,11.431 C17.321,11.750 17.592,11.982 17.926,12.085 C18.246,12.184 18.274,12.280 18.312,12.412 C18.494,13.038 18.908,13.501 19.447,13.680 C19.963,13.853 20.536,13.742 21.022,13.377 C21.313,13.157 21.478,13.203 22.114,13.510 C22.530,13.711 23.047,13.962 23.717,14.048 C23.822,14.061 23.885,14.092 23.908,14.117 C24.369,14.601 24.723,15.203 25.064,15.784 C25.588,16.676 26.083,17.518 26.934,17.960 C27.599,18.306 26.854,20.261 26.496,21.200 C26.424,21.389 26.357,21.565 26.301,21.723 C25.437,22.388 24.910,23.143 24.399,23.874 C23.942,24.529 23.469,25.206 22.736,25.836 C21.630,26.789 20.694,27.359 19.607,27.746 C19.428,27.809 19.312,27.703 19.270,27.653 C19.230,27.607 19.148,27.480 19.236,27.322 C20.354,25.321 21.647,22.498 19.973,21.113 C18.332,19.755 17.718,17.784 18.407,16.092 C18.700,15.373 18.373,14.567 17.649,14.189 C17.588,14.113 17.543,13.784 17.515,13.566 C17.450,13.087 17.371,12.492 17.017,11.972 C16.870,11.757 16.606,11.562 16.424,11.474 C15.732,11.135 15.068,11.038 14.426,10.945 C13.914,10.870 13.431,10.800 12.938,10.611 C11.061,9.891 9.725,6.845 8.749,4.621 C8.609,4.302 8.475,3.997 8.346,3.711 C8.413,3.667 8.482,3.624 8.550,3.580 ZM17.000,32.867 C8.251,32.867 1.133,25.749 1.133,17.000 C1.133,11.856 3.595,7.278 7.401,4.377 C7.502,4.602 7.604,4.835 7.711,5.077 C8.825,7.619 10.212,10.781 12.532,11.671 C13.142,11.905 13.712,11.988 14.262,12.068 C14.843,12.152 15.392,12.232 15.926,12.494 C15.969,12.515 16.058,12.584 16.081,12.612 C16.283,12.909 16.338,13.319 16.391,13.716 C16.464,14.264 16.547,14.884 17.101,15.177 C17.281,15.273 17.439,15.465 17.358,15.664 C16.478,17.824 17.220,20.306 19.251,21.987 C19.771,22.417 20.019,23.597 18.247,26.770 C17.955,27.293 18.017,27.927 18.405,28.386 C18.686,28.719 19.086,28.899 19.500,28.899 C19.662,28.899 19.827,28.871 19.987,28.814 C21.214,28.378 22.257,27.745 23.476,26.696 C24.317,25.973 24.831,25.236 25.329,24.524 C25.831,23.805 26.306,23.126 27.084,22.553 C27.197,22.470 27.281,22.357 27.326,22.227 C27.387,22.048 27.467,21.837 27.556,21.605 C28.138,20.077 29.019,17.768 27.457,16.956 C26.896,16.664 26.501,15.991 26.042,15.212 C25.685,14.604 25.280,13.915 24.730,13.336 C24.517,13.112 24.216,12.970 23.863,12.924 C23.376,12.862 22.986,12.673 22.609,12.490 C21.987,12.190 21.213,11.816 20.342,12.471 C20.210,12.570 20.011,12.673 19.807,12.606 C19.626,12.545 19.478,12.360 19.402,12.097 C19.292,11.716 19.063,11.249 18.262,11.002 C18.227,10.991 18.200,10.967 18.181,10.928 C18.156,10.878 18.153,10.815 18.179,10.744 C18.286,10.452 18.242,10.157 18.058,9.935 C17.856,9.690 17.495,9.564 16.981,9.556 C16.961,9.467 16.916,9.377 16.832,9.289 L16.488,8.975 L16.101,9.203 C16.001,9.262 15.888,9.255 15.765,9.180 C15.574,9.066 15.448,8.839 15.458,8.630 C15.463,8.500 15.472,8.426 15.479,8.384 C15.618,8.343 15.949,8.306 16.271,8.270 L16.615,8.231 L16.699,8.192 C17.205,7.957 17.610,7.886 17.782,7.997 C17.852,8.043 18.076,8.263 18.051,9.174 L18.036,9.677 L18.534,9.751 C19.181,9.848 19.660,9.721 19.959,9.378 C20.267,9.024 20.323,8.497 20.123,7.814 C20.095,7.715 20.120,7.593 20.189,7.504 C21.757,5.464 23.072,4.525 25.576,3.660 C29.957,6.488 32.867,11.409 32.867,17.000 C32.867,25.749 25.749,32.867 17.000,32.867 Z"/>
</svg>